<svg version="1.0" preserveAspectRatio="xMidYMid meet" viewBox="151.125 474.563978802808 951 572.999974406" zoomAndPan="magnify" xmlns:xlink="http://www.w3.org/1999/xlink" xmlns="http://www.w3.org/2000/svg" style="max-height: 500px" width="951" height="572.999974406"><defs><g/><clipPath id="bf1647c86d"><rect height="413" y="0" width="556" x="0"/></clipPath><clipPath id="a836ce8a4f"><rect height="338" y="0" width="330" x="0"/></clipPath></defs><g transform="matrix(1, 0, 0, 1, 152, 607)"><g clip-path="url(#bf1647c86d)"><g fill-opacity="1" fill="#a5b5c1"><g transform="translate(1.00002, 306.978612)"><g><path d="M 68.390625 -140.609375 C 73.285156 -148.242188 80.035156 -154.40625 88.640625 -159.09375 C 97.253906 -163.789062 107.335938 -166.140625 118.890625 -166.140625 C 132.390625 -166.140625 144.617188 -162.710938 155.578125 -155.859375 C 166.535156 -149.015625 175.191406 -139.234375 181.546875 -126.515625 C 187.910156 -113.796875 191.09375 -99.019531 191.09375 -82.1875 C 191.09375 -65.363281 187.910156 -50.539062 181.546875 -37.71875 C 175.191406 -24.90625 166.535156 -15.023438 155.578125 -8.078125 C 144.617188 -1.128906 132.390625 2.34375 118.890625 2.34375 C 107.535156 2.34375 97.503906 0 88.796875 -4.6875 C 80.085938 -9.382812 73.285156 -15.453125 68.390625 -22.890625 L 68.390625 78.078125 L 18.203125 78.078125 L 18.203125 -163.796875 L 68.390625 -163.796875 Z M 140.015625 -82.1875 C 140.015625 -94.71875 136.539062 -104.550781 129.59375 -111.6875 C 122.65625 -118.832031 114.097656 -122.40625 103.921875 -122.40625 C 93.929688 -122.40625 85.460938 -118.785156 78.515625 -111.546875 C 71.578125 -104.304688 68.109375 -94.425781 68.109375 -81.90625 C 68.109375 -69.375 71.578125 -59.488281 78.515625 -52.25 C 85.460938 -45.007812 93.929688 -41.390625 103.921875 -41.390625 C 113.898438 -41.390625 122.410156 -45.054688 129.453125 -52.390625 C 136.492188 -59.734375 140.015625 -69.664062 140.015625 -82.1875 Z M 140.015625 -82.1875"/></g></g></g><g fill-opacity="1" fill="#a5b5c1"><g transform="translate(185.042789, 306.978612)"><g><path d="M 8.21875 -82.1875 C 8.21875 -99.019531 11.394531 -113.796875 17.75 -126.515625 C 24.113281 -139.234375 32.773438 -149.015625 43.734375 -155.859375 C 54.691406 -162.710938 66.925781 -166.140625 80.4375 -166.140625 C 91.976562 -166.140625 102.101562 -163.789062 110.8125 -159.09375 C 119.519531 -154.40625 126.222656 -148.242188 130.921875 -140.609375 L 130.921875 -163.796875 L 181.125 -163.796875 L 181.125 0 L 130.921875 0 L 130.921875 -23.1875 C 126.023438 -15.550781 119.222656 -9.382812 110.515625 -4.6875 C 101.804688 0 91.679688 2.34375 80.140625 2.34375 C 66.828125 2.34375 54.691406 -1.128906 43.734375 -8.078125 C 32.773438 -15.023438 24.113281 -24.90625 17.75 -37.71875 C 11.394531 -50.539062 8.21875 -65.363281 8.21875 -82.1875 Z M 130.921875 -81.90625 C 130.921875 -94.425781 127.445312 -104.304688 120.5 -111.546875 C 113.550781 -118.785156 105.085938 -122.40625 95.109375 -122.40625 C 85.128906 -122.40625 76.664062 -118.832031 69.71875 -111.6875 C 62.769531 -104.550781 59.296875 -94.71875 59.296875 -82.1875 C 59.296875 -69.664062 62.769531 -59.734375 69.71875 -52.390625 C 76.664062 -45.054688 85.128906 -41.390625 95.109375 -41.390625 C 105.085938 -41.390625 113.550781 -45.007812 120.5 -52.25 C 127.445312 -59.488281 130.921875 -69.375 130.921875 -81.90625 Z M 130.921875 -81.90625"/></g></g></g><g fill-opacity="1" fill="#a5b5c1"><g transform="translate(369.085558, 306.978612)"><g><path d="M 8.21875 -82.1875 C 8.21875 -99.019531 11.394531 -113.796875 17.75 -126.515625 C 24.113281 -139.234375 32.773438 -149.015625 43.734375 -155.859375 C 54.691406 -162.710938 66.925781 -166.140625 80.4375 -166.140625 C 91.195312 -166.140625 101.03125 -163.890625 109.9375 -159.390625 C 118.84375 -154.890625 125.835938 -148.828125 130.921875 -141.203125 L 130.921875 -217.21875 L 181.125 -217.21875 L 181.125 0 L 130.921875 0 L 130.921875 -23.484375 C 126.222656 -15.648438 119.519531 -9.382812 110.8125 -4.6875 C 102.101562 0 91.976562 2.34375 80.4375 2.34375 C 66.925781 2.34375 54.691406 -1.128906 43.734375 -8.078125 C 32.773438 -15.023438 24.113281 -24.90625 17.75 -37.71875 C 11.394531 -50.539062 8.21875 -65.363281 8.21875 -82.1875 Z M 130.921875 -81.90625 C 130.921875 -94.425781 127.445312 -104.304688 120.5 -111.546875 C 113.550781 -118.785156 105.085938 -122.40625 95.109375 -122.40625 C 85.128906 -122.40625 76.664062 -118.832031 69.71875 -111.6875 C 62.769531 -104.550781 59.296875 -94.71875 59.296875 -82.1875 C 59.296875 -69.664062 62.769531 -59.734375 69.71875 -52.390625 C 76.664062 -45.054688 85.128906 -41.390625 95.109375 -41.390625 C 105.085938 -41.390625 113.550781 -45.007812 120.5 -52.25 C 127.445312 -59.488281 130.921875 -69.375 130.921875 -81.90625 Z M 130.921875 -81.90625"/></g></g></g></g></g><g fill-opacity="1" fill="#374a4d"><g transform="translate(163.246308, 736.235989)"><g><path d="M 59.035156 -146.316406 C 64.929688 -155.515625 73.003906 -162.910156 83.246094 -168.496094 C 93.484375 -174.082031 105.300781 -176.871094 118.695312 -176.871094 C 134.277344 -176.871094 148.433594 -172.894531 161.15625 -164.945312 C 173.847656 -157.011719 183.828125 -145.777344 191.097656 -131.230469 C 198.222656 -116.984375 201.785156 -100.59375 201.785156 -82.0625 C 201.785156 -63.539062 198.226562 -47.113281 191.113281 -32.777344 C 183.851562 -18.144531 173.886719 -6.808594 161.214844 1.222656 C 148.476562 9.296875 134.304688 13.335938 118.695312 13.335938 C 105.515625 13.335938 93.761719 10.550781 83.4375 4.984375 C 73.117188 -0.582031 65.007812 -7.851562 59.105469 -16.820312 L 68.285156 -22.859375 L 79.277344 -22.859375 L 79.277344 88.949219 L 7.179688 88.949219 L 7.179688 -174.527344 L 79.277344 -174.527344 L 79.277344 -140.382812 L 68.285156 -140.382812 Z M 57.296875 -102.875 L 57.296875 -163.539062 L 68.285156 -163.539062 L 68.285156 -152.546875 L 18.171875 -152.546875 L 18.171875 -163.539062 L 29.160156 -163.539062 L 29.160156 77.957031 L 18.171875 77.957031 L 18.171875 66.96875 L 68.285156 66.96875 L 68.285156 77.957031 L 57.296875 77.957031 L 57.296875 -59.5625 L 77.46875 -28.902344 C 81.335938 -23.019531 86.804688 -18.175781 93.871094 -14.363281 C 100.941406 -10.550781 109.214844 -8.644531 118.695312 -8.644531 C 130.050781 -8.644531 140.300781 -11.542969 149.445312 -17.34375 C 158.65625 -23.179688 165.984375 -31.582031 171.421875 -42.546875 C 177.007812 -53.804688 179.804688 -66.976562 179.804688 -82.0625 C 179.804688 -97.136719 177.015625 -110.25 171.4375 -121.402344 C 166.011719 -132.257812 158.699219 -140.558594 149.507812 -146.304688 C 140.347656 -152.027344 130.078125 -154.890625 118.695312 -154.890625 C 109.035156 -154.890625 100.730469 -152.992188 93.773438 -149.199219 C 86.824219 -145.410156 81.410156 -140.492188 77.539062 -134.453125 Z M 128.808594 -82.0625 C 128.808594 -91.589844 126.375 -98.855469 121.515625 -103.851562 C 116.738281 -108.765625 110.816406 -111.222656 103.75 -111.222656 C 96.910156 -111.222656 91.101562 -108.734375 86.328125 -103.761719 C 81.433594 -98.65625 78.984375 -91.328125 78.984375 -81.769531 C 78.984375 -72.210938 81.433594 -64.878906 86.328125 -59.777344 C 91.101562 -54.800781 96.910156 -52.3125 103.75 -52.3125 C 110.589844 -52.3125 116.449219 -54.851562 121.320312 -59.925781 C 126.3125 -65.125 128.808594 -72.503906 128.808594 -82.0625 Z M 150.789062 -82.0625 C 150.789062 -66.609375 146.25 -54.15625 137.175781 -44.703125 C 127.980469 -35.125 116.835938 -30.332031 103.75 -30.332031 C 90.660156 -30.332031 79.566406 -35.074219 70.46875 -44.558594 C 61.492188 -53.914062 57.003906 -66.316406 57.003906 -81.769531 C 57.003906 -97.21875 61.492188 -109.625 70.46875 -118.976562 C 79.566406 -128.460938 90.660156 -133.203125 103.75 -133.203125 C 117.003906 -133.203125 128.179688 -128.527344 137.273438 -119.179688 C 146.28125 -109.914062 150.789062 -97.542969 150.789062 -82.0625 Z M 150.789062 -82.0625"/></g></g></g><g fill-opacity="1" fill="#374a4d"><g transform="translate(347.00545, 736.235989)"><g><path d="M -2.785156 -82.0625 C -2.785156 -100.59375 0.777344 -116.984375 7.902344 -131.230469 C 15.171875 -145.777344 25.152344 -157.011719 37.84375 -164.945312 C 50.566406 -172.894531 64.71875 -176.871094 80.304688 -176.871094 C 93.679688 -176.871094 105.53125 -174.089844 115.855469 -168.519531 C 126.28125 -162.898438 134.351562 -155.4375 140.074219 -146.144531 L 130.710938 -140.382812 L 119.722656 -140.382812 L 119.722656 -174.527344 L 191.820312 -174.527344 L 191.820312 10.992188 L 119.722656 10.992188 L 119.722656 -23.152344 L 130.710938 -23.152344 L 139.964844 -17.222656 C 134.058594 -8.007812 125.921875 -0.605469 115.5625 4.984375 C 105.238281 10.550781 93.386719 13.335938 80.011719 13.335938 C 64.597656 13.335938 50.523438 9.296875 37.785156 1.222656 C 25.113281 -6.808594 15.144531 -18.144531 7.886719 -32.777344 C 0.773438 -47.113281 -2.785156 -63.539062 -2.785156 -82.0625 Z M 19.195312 -82.0625 C 19.195312 -66.976562 21.988281 -53.804688 27.578125 -42.546875 C 33.015625 -31.582031 40.339844 -23.179688 49.554688 -17.34375 C 58.699219 -11.542969 68.851562 -8.644531 80.011719 -8.644531 C 89.6875 -8.644531 98.058594 -10.550781 105.125 -14.363281 C 112.152344 -18.152344 117.597656 -23.058594 121.460938 -29.085938 L 141.703125 -60.664062 L 141.703125 0 L 130.710938 0 L 130.710938 -10.992188 L 180.828125 -10.992188 L 180.828125 0 L 169.839844 0 L 169.839844 -163.539062 L 180.828125 -163.539062 L 180.828125 -152.546875 L 130.710938 -152.546875 L 130.710938 -163.539062 L 141.703125 -163.539062 L 141.703125 -101.554688 L 121.351562 -134.625 C 117.695312 -140.570312 112.382812 -145.417969 105.417969 -149.175781 C 98.351562 -152.984375 89.980469 -154.890625 80.304688 -154.890625 C 68.921875 -154.890625 58.652344 -152.027344 49.492188 -146.304688 C 40.300781 -140.558594 32.988281 -132.257812 27.5625 -121.402344 C 21.984375 -110.25 19.195312 -97.136719 19.195312 -82.0625 Z M 119.722656 -81.769531 C 119.722656 -91.328125 117.273438 -98.65625 112.378906 -103.761719 C 107.605469 -108.734375 101.796875 -111.222656 94.957031 -111.222656 C 88.085938 -111.222656 82.261719 -108.765625 77.484375 -103.851562 C 72.621094 -98.855469 70.191406 -91.589844 70.191406 -82.0625 C 70.191406 -72.476562 72.65625 -65.078125 77.585938 -59.871094 C 82.355469 -54.832031 88.144531 -52.3125 94.957031 -52.3125 C 101.796875 -52.3125 107.605469 -54.800781 112.378906 -59.777344 C 117.273438 -64.878906 119.722656 -72.210938 119.722656 -81.769531 Z M 141.703125 -81.769531 C 141.703125 -66.316406 137.214844 -53.914062 128.238281 -44.558594 C 119.140625 -35.074219 108.046875 -30.332031 94.957031 -30.332031 C 81.839844 -30.332031 70.726562 -35.140625 61.625 -44.757812 C 52.683594 -54.203125 48.210938 -66.640625 48.210938 -82.0625 C 48.210938 -97.542969 52.714844 -109.914062 61.726562 -119.179688 C 70.820312 -128.527344 81.898438 -133.203125 94.957031 -133.203125 C 108.046875 -133.203125 119.140625 -128.460938 128.238281 -118.976562 C 137.214844 -109.625 141.703125 -97.21875 141.703125 -81.769531 Z M 141.703125 -81.769531"/></g></g></g><g fill-opacity="1" fill="#374a4d"><g transform="translate(530.764591, 736.235989)"><g><path d="M -2.785156 -81.769531 C -2.785156 -100.636719 1.132812 -117.242188 8.964844 -131.585938 C 16.925781 -146.160156 28.042969 -157.378906 42.320312 -165.25 C 56.378906 -172.996094 72.359375 -176.871094 90.269531 -176.871094 C 113.304688 -176.871094 132.703125 -170.722656 148.464844 -158.429688 C 164.320312 -146.058594 174.679688 -128.8125 179.546875 -106.695312 L 182.484375 -93.34375 L 107.742188 -93.34375 L 105.128906 -100.617188 C 103.652344 -104.730469 101.664062 -107.683594 99.164062 -109.480469 C 96.734375 -111.226562 93.476562 -112.101562 89.386719 -112.101562 C 83.820312 -112.101562 79.398438 -109.96875 76.128906 -105.707031 C 72.171875 -100.546875 70.191406 -92.566406 70.191406 -81.769531 C 70.191406 -70.96875 72.171875 -62.988281 76.128906 -57.832031 C 79.398438 -53.566406 83.820312 -51.433594 89.386719 -51.433594 C 93.476562 -51.433594 96.734375 -52.308594 99.164062 -54.058594 C 101.664062 -55.855469 103.652344 -58.808594 105.128906 -62.917969 L 107.742188 -70.191406 L 182.542969 -70.191406 L 179.535156 -56.792969 C 174.667969 -35.109375 164.277344 -17.992188 148.363281 -5.4375 C 132.496094 7.078125 113.128906 13.335938 90.269531 13.335938 C 72.359375 13.335938 56.378906 9.460938 42.320312 1.710938 C 28.042969 -6.15625 16.925781 -17.378906 8.964844 -31.953125 C 1.132812 -46.292969 -2.785156 -62.898438 -2.785156 -81.769531 Z M 19.195312 -81.769531 C 19.195312 -66.640625 22.214844 -53.546875 28.257812 -42.488281 C 34.167969 -31.664062 42.394531 -23.347656 52.929688 -17.539062 C 63.6875 -11.609375 76.132812 -8.644531 90.269531 -8.644531 C 108.046875 -8.644531 122.875 -13.328125 134.75 -22.695312 C 146.582031 -32.027344 154.359375 -45 158.089844 -61.609375 L 168.8125 -59.203125 L 168.8125 -48.210938 L 115.472656 -48.210938 L 115.472656 -59.203125 L 125.816406 -55.484375 C 122.796875 -47.089844 118.191406 -40.664062 111.996094 -36.210938 C 105.734375 -31.707031 98.195312 -29.453125 89.386719 -29.453125 C 76.589844 -29.453125 66.359375 -34.453125 58.6875 -44.453125 C 51.703125 -53.558594 48.210938 -65.996094 48.210938 -81.769531 C 48.210938 -97.542969 51.703125 -109.980469 58.6875 -119.085938 C 66.359375 -129.082031 76.589844 -134.082031 89.386719 -134.082031 C 98.195312 -134.082031 105.734375 -131.832031 111.996094 -127.328125 C 118.191406 -122.871094 122.796875 -116.445312 125.816406 -108.050781 L 115.472656 -104.335938 L 115.472656 -115.324219 L 168.8125 -115.324219 L 168.8125 -104.335938 L 158.078125 -101.972656 C 154.347656 -118.933594 146.636719 -131.976562 134.941406 -141.097656 C 123.15625 -150.292969 108.261719 -154.890625 90.269531 -154.890625 C 76.132812 -154.890625 63.6875 -151.925781 52.929688 -146 C 42.394531 -140.191406 34.167969 -131.875 28.257812 -121.046875 C 22.214844 -109.988281 19.195312 -96.898438 19.195312 -81.769531 Z M 19.195312 -81.769531"/></g></g></g><g fill-opacity="1" fill="#374a4d"><g transform="translate(692.836037, 736.235989)"><g><path d="M 183.320312 -84.40625 C 183.320312 -79.296875 183.003906 -73.992188 182.367188 -68.492188 L 181.246094 -58.761719 L 58.03125 -58.761719 L 58.03125 -69.753906 L 68.988281 -70.59375 C 69.550781 -63.285156 71.667969 -57.917969 75.339844 -54.492188 C 78.996094 -51.085938 83.578125 -49.382812 89.09375 -49.382812 C 93.300781 -49.382812 96.699219 -50.171875 99.292969 -51.746094 C 101.730469 -53.226562 103.703125 -55.589844 105.207031 -58.835938 L 108.15625 -65.210938 L 182.65625 -65.210938 L 179.171875 -51.507812 C 176.027344 -39.160156 170.363281 -28.054688 162.179688 -18.1875 C 153.972656 -8.296875 143.730469 -0.558594 131.449219 5.023438 C 119.257812 10.5625 105.726562 13.335938 90.855469 13.335938 C 72.960938 13.335938 56.9375 9.464844 42.792969 1.730469 C 28.421875 -6.128906 17.207031 -17.335938 9.140625 -31.894531 C 1.191406 -46.253906 -2.785156 -62.875 -2.785156 -81.769531 C -2.785156 -100.636719 1.132812 -117.242188 8.964844 -131.585938 C 16.929688 -146.171875 28.109375 -157.398438 42.5 -165.265625 C 56.644531 -173.003906 72.765625 -176.871094 90.855469 -176.871094 C 108.53125 -176.871094 124.339844 -173.109375 138.277344 -165.589844 C 152.449219 -157.941406 163.523438 -147.039062 171.5 -132.882812 C 179.378906 -118.898438 183.320312 -102.742188 183.320312 -84.40625 Z M 161.339844 -84.40625 C 161.339844 -98.894531 158.34375 -111.457031 152.351562 -122.09375 C 146.453125 -132.558594 138.28125 -140.609375 127.835938 -146.246094 C 117.15625 -152.007812 104.828125 -154.890625 90.855469 -154.890625 C 76.507812 -154.890625 63.90625 -151.921875 53.046875 -145.980469 C 42.425781 -140.171875 34.164062 -131.863281 28.257812 -121.046875 C 22.214844 -109.988281 19.195312 -96.898438 19.195312 -81.769531 C 19.195312 -66.664062 22.253906 -53.589844 28.371094 -42.546875 C 34.375 -31.703125 42.699219 -23.375 53.339844 -17.554688 C 64.199219 -11.617188 76.703125 -8.644531 90.855469 -8.644531 C 102.554688 -8.644531 113.054688 -10.761719 122.355469 -14.988281 C 131.566406 -19.175781 139.203125 -24.921875 145.261719 -32.222656 C 151.335938 -39.546875 155.539062 -47.785156 157.867188 -56.929688 L 168.519531 -54.21875 L 168.519531 -43.230469 L 115.179688 -43.230469 L 115.179688 -54.21875 L 125.152344 -49.601562 C 121.773438 -42.300781 116.953125 -36.75 110.695312 -32.953125 C 104.597656 -29.253906 97.398438 -27.402344 89.09375 -27.402344 C 77.808594 -27.402344 68.226562 -31.074219 60.351562 -38.414062 C 52.5 -45.734375 48.070312 -55.902344 47.070312 -68.910156 L 46.160156 -80.742188 L 171.449219 -80.742188 L 171.449219 -69.753906 L 160.53125 -71.011719 C 161.070312 -75.671875 161.339844 -80.136719 161.339844 -84.40625 Z M 110.050781 -97.59375 C 110.050781 -102.847656 108.382812 -106.917969 105.050781 -109.804688 C 101.253906 -113.09375 96.328125 -114.738281 90.269531 -114.738281 C 84.554688 -114.738281 79.839844 -113.167969 76.125 -110.019531 C 72.457031 -106.910156 70.144531 -102.214844 69.1875 -95.941406 L 58.324219 -97.59375 L 58.324219 -108.585938 L 121.039062 -108.585938 L 121.039062 -97.59375 Z M 132.03125 -86.605469 L 45.53125 -86.605469 L 47.457031 -99.25 C 49.238281 -110.949219 54.054688 -120.128906 61.914062 -126.789062 C 69.726562 -133.410156 79.179688 -136.722656 90.269531 -136.722656 C 101.792969 -136.722656 111.519531 -133.285156 119.445312 -126.414062 C 127.835938 -119.144531 132.03125 -109.539062 132.03125 -97.59375 Z M 132.03125 -86.605469"/></g></g></g><g fill-opacity="1" fill="#a5b5c1"><g transform="translate(163.246308, 736.235989)"><g><path d="M 68.28125 -140.390625 C 73.164062 -148.003906 79.90625 -154.15625 88.5 -158.84375 C 97.101562 -163.53125 107.171875 -165.875 118.703125 -165.875 C 132.179688 -165.875 144.390625 -162.453125 155.328125 -155.609375 C 166.273438 -148.773438 174.921875 -139.007812 181.265625 -126.3125 C 187.617188 -113.613281 190.796875 -98.863281 190.796875 -82.0625 C 190.796875 -65.257812 187.617188 -50.457031 181.265625 -37.65625 C 174.921875 -24.863281 166.273438 -15 155.328125 -8.0625 C 144.390625 -1.125 132.179688 2.34375 118.703125 2.34375 C 107.367188 2.34375 97.351562 0 88.65625 -4.6875 C 79.957031 -9.375 73.164062 -15.429688 68.28125 -22.859375 L 68.28125 77.953125 L 18.171875 77.953125 L 18.171875 -163.53125 L 68.28125 -163.53125 Z M 139.796875 -82.0625 C 139.796875 -94.5625 136.328125 -104.378906 129.390625 -111.515625 C 122.453125 -118.648438 113.90625 -122.21875 103.75 -122.21875 C 93.78125 -122.21875 85.328125 -118.601562 78.390625 -111.375 C 71.460938 -104.144531 68 -94.273438 68 -81.765625 C 68 -69.265625 71.460938 -59.398438 78.390625 -52.171875 C 85.328125 -44.941406 93.78125 -41.328125 103.75 -41.328125 C 113.71875 -41.328125 122.21875 -44.988281 129.25 -52.3125 C 136.28125 -59.644531 139.796875 -69.5625 139.796875 -82.0625 Z M 139.796875 -82.0625"/></g></g></g><g fill-opacity="1" fill="#a5b5c1"><g transform="translate(347.00545, 736.235989)"><g><path d="M 8.203125 -82.0625 C 8.203125 -98.863281 11.375 -113.613281 17.71875 -126.3125 C 24.070312 -139.007812 32.71875 -148.773438 43.65625 -155.609375 C 54.601562 -162.453125 66.816406 -165.875 80.296875 -165.875 C 91.828125 -165.875 101.9375 -163.53125 110.625 -158.84375 C 119.320312 -154.15625 126.019531 -148.003906 130.71875 -140.390625 L 130.71875 -163.53125 L 180.828125 -163.53125 L 180.828125 0 L 130.71875 0 L 130.71875 -23.15625 C 125.832031 -15.53125 119.039062 -9.375 110.34375 -4.6875 C 101.644531 0 91.535156 2.34375 80.015625 2.34375 C 66.722656 2.34375 54.601562 -1.125 43.65625 -8.0625 C 32.71875 -15 24.070312 -24.863281 17.71875 -37.65625 C 11.375 -50.457031 8.203125 -65.257812 8.203125 -82.0625 Z M 130.71875 -81.765625 C 130.71875 -94.273438 127.25 -104.144531 120.3125 -111.375 C 113.375 -118.601562 104.921875 -122.21875 94.953125 -122.21875 C 84.992188 -122.21875 76.546875 -118.648438 69.609375 -111.515625 C 62.671875 -104.378906 59.203125 -94.5625 59.203125 -82.0625 C 59.203125 -69.5625 62.671875 -59.644531 69.609375 -52.3125 C 76.546875 -44.988281 84.992188 -41.328125 94.953125 -41.328125 C 104.921875 -41.328125 113.375 -44.941406 120.3125 -52.171875 C 127.25 -59.398438 130.71875 -69.265625 130.71875 -81.765625 Z M 130.71875 -81.765625"/></g></g></g><g fill-opacity="1" fill="#a5b5c1"><g transform="translate(530.764591, 736.235989)"><g><path d="M 8.203125 -81.765625 C 8.203125 -98.765625 11.671875 -113.613281 18.609375 -126.3125 C 25.546875 -139.007812 35.21875 -148.773438 47.625 -155.609375 C 60.03125 -162.453125 74.242188 -165.875 90.265625 -165.875 C 110.785156 -165.875 127.929688 -160.5 141.703125 -149.75 C 155.472656 -139.007812 164.507812 -123.867188 168.8125 -104.328125 L 115.46875 -104.328125 C 110.976562 -116.835938 102.285156 -123.09375 89.390625 -123.09375 C 80.203125 -123.09375 72.875 -119.523438 67.40625 -112.390625 C 61.9375 -105.265625 59.203125 -95.054688 59.203125 -81.765625 C 59.203125 -68.484375 61.9375 -58.273438 67.40625 -51.140625 C 72.875 -44.003906 80.203125 -40.4375 89.390625 -40.4375 C 102.285156 -40.4375 110.976562 -46.691406 115.46875 -59.203125 L 168.8125 -59.203125 C 164.507812 -40.054688 155.421875 -25.007812 141.546875 -14.0625 C 127.679688 -3.125 110.585938 2.34375 90.265625 2.34375 C 74.242188 2.34375 60.03125 -1.070312 47.625 -7.90625 C 35.21875 -14.75 25.546875 -24.519531 18.609375 -37.21875 C 11.671875 -49.914062 8.203125 -64.765625 8.203125 -81.765625 Z M 8.203125 -81.765625"/></g></g></g><g fill-opacity="1" fill="#a5b5c1"><g transform="translate(692.836037, 736.235989)"><g><path d="M 172.328125 -84.40625 C 172.328125 -79.71875 172.035156 -74.832031 171.453125 -69.75 L 58.03125 -69.75 C 58.8125 -59.59375 62.082031 -51.828125 67.84375 -46.453125 C 73.613281 -41.078125 80.695312 -38.390625 89.09375 -38.390625 C 101.601562 -38.390625 110.300781 -43.664062 115.1875 -54.21875 L 168.515625 -54.21875 C 165.785156 -43.46875 160.851562 -33.796875 153.71875 -25.203125 C 146.582031 -16.609375 137.640625 -9.867188 126.890625 -4.984375 C 116.148438 -0.0976562 104.140625 2.34375 90.859375 2.34375 C 74.835938 2.34375 60.570312 -1.070312 48.0625 -7.90625 C 35.5625 -14.75 25.789062 -24.519531 18.75 -37.21875 C 11.71875 -49.914062 8.203125 -64.765625 8.203125 -81.765625 C 8.203125 -98.765625 11.671875 -113.613281 18.609375 -126.3125 C 25.546875 -139.007812 35.265625 -148.773438 47.765625 -155.609375 C 60.273438 -162.453125 74.640625 -165.875 90.859375 -165.875 C 106.679688 -165.875 120.742188 -162.550781 133.046875 -155.90625 C 145.359375 -149.269531 154.984375 -139.796875 161.921875 -127.484375 C 168.859375 -115.179688 172.328125 -100.820312 172.328125 -84.40625 Z M 121.046875 -97.59375 C 121.046875 -106.1875 118.113281 -113.023438 112.25 -118.109375 C 106.382812 -123.191406 99.054688 -125.734375 90.265625 -125.734375 C 81.867188 -125.734375 74.785156 -123.289062 69.015625 -118.40625 C 63.253906 -113.519531 59.691406 -106.582031 58.328125 -97.59375 Z M 121.046875 -97.59375"/></g></g></g><g transform="matrix(1, 0, 0, 1, 717, 414)"><g clip-path="url(#a836ce8a4f)"><g fill-opacity="1" fill="#ffffff"><g transform="translate(35.195253, 117.934604)"><g><path d="M 31.6875 -41.109375 L 39.109375 -9.0625 L 31.3125 -7.265625 L 26.859375 -26.46875 L 24.140625 -5.59375 L 17.84375 -4.140625 L 6.171875 -21.71875 L 10.640625 -2.46875 L 2.828125 -0.65625 L -4.59375 -32.703125 L 4.625 -34.84375 L 18.75 -14.734375 L 22.515625 -38.984375 Z M 31.6875 -41.109375"/></g></g></g><g fill-opacity="1" fill="#ffffff"><g transform="translate(74.81019, 109.289421)"><g><path d="M 14.78125 0.765625 C 12.226562 0.703125 9.941406 0.0976562 7.921875 -1.046875 C 5.910156 -2.203125 4.34375 -3.8125 3.21875 -5.875 C 2.101562 -7.9375 1.582031 -10.320312 1.65625 -13.03125 C 1.726562 -15.71875 2.382812 -18.066406 3.625 -20.078125 C 4.875 -22.085938 6.539062 -23.609375 8.625 -24.640625 C 10.71875 -25.679688 13.039062 -26.171875 15.59375 -26.109375 C 18.15625 -26.035156 20.453125 -25.425781 22.484375 -24.28125 C 24.515625 -23.132812 26.09375 -21.523438 27.21875 -19.453125 C 28.351562 -17.378906 28.882812 -15 28.8125 -12.3125 C 28.738281 -9.632812 28.070312 -7.285156 26.8125 -5.265625 C 25.5625 -3.253906 23.882812 -1.726562 21.78125 -0.6875 C 19.675781 0.351562 17.34375 0.835938 14.78125 0.765625 Z M 14.96875 -6.171875 C 16.5 -6.128906 17.816406 -6.65625 18.921875 -7.75 C 20.035156 -8.84375 20.617188 -10.429688 20.671875 -12.515625 C 20.734375 -14.609375 20.253906 -16.234375 19.234375 -17.390625 C 18.210938 -18.546875 16.9375 -19.144531 15.40625 -19.1875 C 13.84375 -19.226562 12.535156 -18.707031 11.484375 -17.625 C 10.429688 -16.539062 9.875 -14.9375 9.8125 -12.8125 C 9.757812 -10.726562 10.222656 -9.109375 11.203125 -7.953125 C 12.179688 -6.804688 13.4375 -6.210938 14.96875 -6.171875 Z M 14.96875 -6.171875"/></g></g></g><g fill-opacity="1" fill="#ffffff"><g transform="translate(102.668392, 109.858814)"><g><path d="M 16 -3.90625 L 25.828125 -20.734375 L 34.125 -18.765625 L 19.046875 4.53125 L 9.4375 2.25 L 6.453125 -25.34375 L 14.796875 -23.359375 Z M 16 -3.90625"/></g></g></g><g fill-opacity="1" fill="#ffffff"><g transform="translate(129.352665, 116.013323)"><g><path d="M 30.671875 -0.578125 C 30.347656 0.0976562 29.976562 0.785156 29.5625 1.484375 L 13.125 -6.1875 C 12.550781 -4.664062 12.5 -3.316406 12.96875 -2.140625 C 13.4375 -0.972656 14.28125 -0.109375 15.5 0.453125 C 17.3125 1.296875 18.929688 1.117188 20.359375 -0.078125 L 28.078125 3.53125 C 26.953125 4.90625 25.582031 5.972656 23.96875 6.734375 C 22.351562 7.492188 20.601562 7.863281 18.71875 7.84375 C 16.832031 7.832031 14.925781 7.378906 13 6.484375 C 10.6875 5.398438 8.851562 3.9375 7.5 2.09375 C 6.15625 0.257812 5.398438 -1.8125 5.234375 -4.125 C 5.078125 -6.4375 5.566406 -8.820312 6.703125 -11.28125 C 7.859375 -13.738281 9.367188 -15.65625 11.234375 -17.03125 C 13.097656 -18.40625 15.164062 -19.164062 17.4375 -19.3125 C 19.707031 -19.457031 22.015625 -18.984375 24.359375 -17.890625 C 26.648438 -16.828125 28.460938 -15.394531 29.796875 -13.59375 C 31.140625 -11.800781 31.894531 -9.773438 32.0625 -7.515625 C 32.238281 -5.265625 31.773438 -2.953125 30.671875 -0.578125 Z M 24.125 -5.953125 C 24.707031 -7.203125 24.742188 -8.390625 24.234375 -9.515625 C 23.734375 -10.648438 22.84375 -11.515625 21.5625 -12.109375 C 20.351562 -12.671875 19.164062 -12.789062 18 -12.46875 C 16.832031 -12.15625 15.847656 -11.394531 15.046875 -10.1875 Z M 24.125 -5.953125"/></g></g></g><g fill-opacity="1" fill="#ffffff"><g transform="translate(154.01699, 128.122951)"><g/></g></g><g fill-opacity="1" fill="#ffffff"><g transform="translate(161.666352, 132.380428)"><g><path d="M 39.75 -9.640625 L 35.625 -4.71875 L 25.34375 -13.3125 L 20.90625 -7.984375 L 28.59375 -1.5625 L 24.59375 3.21875 L 16.90625 -3.203125 L 8.375 7 L 2.234375 1.859375 L 23.328125 -23.375 Z M 39.75 -9.640625"/></g></g></g><g fill-opacity="1" fill="#ffffff"><g transform="translate(180.160103, 147.338826)"><g><path d="M 9.015625 11.734375 C 7.410156 9.742188 6.390625 7.609375 5.953125 5.328125 C 5.523438 3.054688 5.726562 0.828125 6.5625 -1.359375 C 7.40625 -3.554688 8.878906 -5.503906 10.984375 -7.203125 C 13.066406 -8.898438 15.273438 -9.929688 17.609375 -10.296875 C 19.941406 -10.660156 22.1875 -10.382812 24.34375 -9.46875 C 26.5 -8.550781 28.378906 -7.097656 29.984375 -5.109375 C 31.597656 -3.117188 32.625 -0.984375 33.0625 1.296875 C 33.507812 3.585938 33.3125 5.835938 32.46875 8.046875 C 31.625 10.265625 30.160156 12.222656 28.078125 13.921875 C 25.992188 15.609375 23.78125 16.625 21.4375 16.96875 C 19.09375 17.320312 16.835938 17.035156 14.671875 16.109375 C 12.515625 15.179688 10.628906 13.722656 9.015625 11.734375 Z M 14.40625 7.375 C 15.375 8.5625 16.632812 9.21875 18.1875 9.34375 C 19.738281 9.476562 21.328125 8.890625 22.953125 7.578125 C 24.578125 6.253906 25.492188 4.832031 25.703125 3.3125 C 25.921875 1.789062 25.550781 0.4375 24.59375 -0.75 C 23.601562 -1.96875 22.351562 -2.625 20.84375 -2.71875 C 19.332031 -2.820312 17.753906 -2.203125 16.109375 -0.859375 C 14.484375 0.453125 13.550781 1.851562 13.3125 3.34375 C 13.082031 4.84375 13.445312 6.1875 14.40625 7.375 Z M 14.40625 7.375"/></g></g></g><g fill-opacity="1" fill="#ffffff"><g transform="translate(197.642108, 169.355467)"><g><path d="M 24.34375 -1.015625 C 26.050781 -0.898438 27.609375 -0.429688 29.015625 0.390625 C 30.421875 1.222656 31.539062 2.390625 32.375 3.890625 L 24.953125 8 L 23.890625 6.078125 C 22.921875 4.328125 21.816406 3.222656 20.578125 2.765625 C 19.347656 2.316406 17.789062 2.613281 15.90625 3.65625 L 5.296875 9.546875 L 1.40625 2.546875 L 24.265625 -10.140625 L 28.15625 -3.140625 Z M 24.34375 -1.015625"/></g></g></g><g fill-opacity="1" fill="#ffffff"><g transform="translate(207.582094, 184.604684)"><g><path d="M 36.765625 31.078125 L 9.6875 31.921875 L 7.125 23.4375 L 22.140625 14.578125 L 4.6875 15.40625 L 2.125 7 L 25.0625 -7.421875 L 27.40625 0.25 L 10.578125 9.203125 L 29.75 8 L 32.21875 16.125 L 15.71875 25.78125 L 34.578125 23.875 Z M 36.765625 31.078125"/></g></g></g><g fill-opacity="1" fill="#ffffff"><g transform="translate(218.4344, 221.185287)"><g><path d="M 13.15625 0.765625 C 15.84375 0.648438 18.222656 1.054688 20.296875 1.984375 C 22.367188 2.921875 23.984375 4.238281 25.140625 5.9375 C 26.304688 7.632812 26.9375 9.554688 27.03125 11.703125 C 27.101562 13.546875 26.796875 15.175781 26.109375 16.59375 C 25.421875 18.019531 24.484375 19.132812 23.296875 19.9375 L 27 19.78125 L 27.34375 27.78125 L 1.21875 28.875 L 0.875 20.875 L 4.578125 20.71875 C 3.328125 19.988281 2.296875 18.941406 1.484375 17.578125 C 0.679688 16.222656 0.238281 14.625 0.15625 12.78125 C 0.0703125 10.664062 0.546875 8.710938 1.578125 6.921875 C 2.617188 5.128906 4.140625 3.679688 6.140625 2.578125 C 8.140625 1.484375 10.476562 0.878906 13.15625 0.765625 Z M 13.921875 20.328125 C 15.921875 20.242188 17.472656 19.617188 18.578125 18.453125 C 19.691406 17.296875 20.21875 15.921875 20.15625 14.328125 C 20.082031 12.734375 19.453125 11.410156 18.265625 10.359375 C 17.078125 9.304688 15.484375 8.820312 13.484375 8.90625 C 11.492188 8.988281 9.9375 9.601562 8.8125 10.75 C 7.695312 11.90625 7.175781 13.28125 7.25 14.875 C 7.3125 16.46875 7.941406 17.796875 9.140625 18.859375 C 10.335938 19.921875 11.929688 20.410156 13.921875 20.328125 Z M 13.921875 20.328125"/></g></g></g><g fill-opacity="1" fill="#ffffff"><g transform="translate(219.323027, 251.181455)"><g><path d="M 20.0625 13.828125 C 21.351562 14.941406 22.3125 16.253906 22.9375 17.765625 C 23.5625 19.273438 23.753906 20.878906 23.515625 22.578125 L 15.109375 21.40625 L 15.421875 19.234375 C 15.703125 17.242188 15.484375 15.695312 14.765625 14.59375 C 14.054688 13.488281 12.632812 12.789062 10.5 12.5 L -1.515625 10.8125 L -0.40625 2.875 L 25.484375 6.5 L 24.375 14.4375 Z M 20.0625 13.828125"/></g></g></g><g fill-opacity="1" fill="#ffffff"><g transform="translate(217.467617, 269.447867)"><g><path d="M 12.03125 5.375 C 14.582031 6.21875 16.660156 7.441406 18.265625 9.046875 C 19.867188 10.648438 20.914062 12.453125 21.40625 14.453125 C 21.894531 16.460938 21.804688 18.484375 21.140625 20.515625 C 20.597656 22.148438 19.757812 23.53125 18.625 24.65625 C 17.5 25.78125 16.226562 26.535156 14.8125 26.921875 L 26.328125 30.75 L 23.8125 38.359375 L -9.09375 27.4375 L -6.578125 19.828125 L -3.015625 21.015625 C -3.960938 19.910156 -4.570312 18.578125 -4.84375 17.015625 C -5.125 15.453125 -4.972656 13.796875 -4.390625 12.046875 C -3.722656 10.015625 -2.585938 8.34375 -0.984375 7.03125 C 0.617188 5.71875 2.550781 4.898438 4.8125 4.578125 C 7.082031 4.265625 9.488281 4.53125 12.03125 5.375 Z M 5.8125 23.9375 C 7.71875 24.570312 9.390625 24.539062 10.828125 23.84375 C 12.273438 23.15625 13.25 22.054688 13.75 20.546875 C 14.257812 19.023438 14.144531 17.5625 13.40625 16.15625 C 12.675781 14.757812 11.359375 13.742188 9.453125 13.109375 C 7.566406 12.484375 5.894531 12.507812 4.4375 13.1875 C 2.976562 13.863281 1.992188 14.960938 1.484375 16.484375 C 0.984375 17.992188 1.109375 19.457031 1.859375 20.875 C 2.609375 22.289062 3.925781 23.3125 5.8125 23.9375 Z M 5.8125 23.9375"/></g></g></g></g></g></svg>